<svg width="512" height="512" viewBox="0 0 512 512" fill="none" xmlns="http://www.w3.org/2000/svg">
  <defs>
    <linearGradient id="irisGold" x1="120" y1="70" x2="390" y2="470" gradientUnits="userSpaceOnUse">
      <stop offset="0" stop-color="#E7C9A4"/>
      <stop offset="1" stop-color="#C7905E"/>
    </linearGradient>
  </defs>

  <path d="M388 160C388 91.5 332.5 36 264 36C195.5 36 140 91.5 140 160C140 214.8 175.7 261.2 227 277.7V312H301V277.7C352.3 261.2 388 214.8 388 160Z" fill="url(#irisGold)" stroke="#1A1A1A" stroke-width="8"/>

  <path d="M264 36V312" stroke="#1A1A1A" stroke-width="8"/>
  <path d="M173 122L264 177L355 122" stroke="#1A1A1A" stroke-width="8" stroke-linecap="round" stroke-linejoin="round"/>
  <path d="M153 210L264 177L375 210" stroke="#1A1A1A" stroke-width="8" stroke-linecap="round" stroke-linejoin="round"/>

  <rect x="210" y="312" width="108" height="18" rx="9" fill="url(#irisGold)" stroke="#1A1A1A" stroke-width="8"/>
  <rect x="206" y="330" width="116" height="24" rx="10" fill="url(#irisGold)" stroke="#1A1A1A" stroke-width="8"/>

  <rect x="232" y="354" width="12" height="60" rx="6" fill="url(#irisGold)" stroke="#1A1A1A" stroke-width="6"/>
  <rect x="284" y="354" width="12" height="60" rx="6" fill="url(#irisGold)" stroke="#1A1A1A" stroke-width="6"/>
  <path d="M256 356L243 382H269L256 356Z" fill="url(#irisGold)" stroke="#1A1A1A" stroke-width="6" stroke-linejoin="round"/>

  <rect x="184" y="414" width="160" height="52" rx="12" fill="url(#irisGold)" stroke="#1A1A1A" stroke-width="8"/>
  <rect x="246" y="442" width="28" height="24" rx="4" fill="url(#irisGold)" stroke="#1A1A1A" stroke-width="6"/>

  <path d="M404 86L416 106L436 118L416 130L404 150L392 130L372 118L392 106L404 86Z" fill="url(#irisGold)" stroke="#1A1A1A" stroke-width="5" stroke-linejoin="round"/>
</svg>
